<svg version="1.1" xmlns="http://www.w3.org/2000/svg" xmlns:xlink="http://www.w3.org/1999/xlink" width="6.44444" height="12.2" viewBox="0,0,6.44444,12.2"><g transform="translate(-236.77778,-173.9)"><g data-paper-data="{&quot;isPaintingLayer&quot;:true}" fill-rule="nonzero" stroke="none" stroke-linecap="butt" stroke-linejoin="miter" stroke-miterlimit="10" stroke-dasharray="" stroke-dashoffset="0" style="mix-blend-mode: normal"><path d="" fill="#f9a83a" stroke-width="1"/><path d="M239.52222,179.3c1.2,0.2 3.7,0.6 3.7,3.1c0,0.7 -0.4,1.5 -1,2c-0.7,0.6 -1.6,0.9 -2.5,0.7c-0.7,-0.1 -1.3,-0.4 -1.7,-0.7v1.1c0,0.3 -0.3,0.6 -0.6,0.6c-0.3,0 -0.6,-0.3 -0.6,-0.6c0,-0.1 -0.1,-1 0,-2.2c0.1,-0.7 0.1,-1.9 0.1,-1.9c0,-0.3 0.3,-0.6 0.6,-0.6c0.3,0 0.6,0.3 0.6,0.6v0.2c0,0.3 0.1,0.8 0.2,1.2c0.2,0.4 0.8,0.7 1,0.8c0.2,0 0.3,0.1 0.5,0.1c0.6,0.1 1.2,0 1.6,-0.4c0.4,-0.3 0.6,-0.7 0.6,-1.1c0,-1 -1.1,-1.3 -2.7,-1.6c-1.5,-0.3 -2.1,-1.5 -1.9,-3.4v-0.2c0.1,-1 0.3,-2.7 2.2,-2.4c0.7,0 1.3,0.5 1.8,1v-1.1c0,-0.3 0.3,-0.6 0.6,-0.6c0.3,0 0.6,0.3 0.6,0.6c0,0.1 -0.2,3.9 -0.2,3.9c-0.1,0.3 -0.4,0.6 -0.7,0.5c-0.3,-0.1 -0.5,-0.3 -0.5,-0.5v-0.4c-0.1,-0.3 -0.1,-0.6 -0.3,-1c-0.2,-0.6 -0.6,-0.9 -0.8,-1.1c-0.2,-0.2 -0.4,-0.3 -0.6,-0.3c-0.6,0 -0.7,0.3 -0.9,1.5v0.2c-0.2,1.4 0.2,1.9 0.9,2" fill="#f9a83a" stroke-width="0"/></g></g></svg>