<?xml version="1.0" standalone="no"?>
<!DOCTYPE svg PUBLIC "-//W3C//DTD SVG 20010904//EN"
 "http://www.w3.org/TR/2001/REC-SVG-20010904/DTD/svg10.dtd">
<svg version="1.0" xmlns="http://www.w3.org/2000/svg"
 width="656.000000pt" height="656.000000pt" viewBox="0 0 656.000000 656.000000"
 preserveAspectRatio="xMidYMid meet">
<metadata>
Created by potrace 1.14, written by Peter Selinger 2001-2017
</metadata>
<g transform="translate(0.000000,656.000000) scale(0.100000,-0.100000)"
fill="#000000" stroke="none">
<path d="M390 3972 l0 -2588 238 -114 c130 -62 311 -149 402 -193 91 -43 318
-152 505 -242 187 -89 401 -192 475 -228 74 -35 189 -90 255 -122 66 -32 221
-106 345 -165 124 -59 302 -145 395 -190 145 -70 269 -128 278 -130 1 -1 47
22 102 50 55 27 106 50 113 50 6 0 12 5 12 11 0 5 5 7 10 4 6 -3 10 -1 10 6 0
7 3 10 6 6 4 -3 48 16 99 43 51 27 96 46 99 43 3 -4 6 -1 6 5 0 7 3 11 8 10 4
-2 60 23 124 55 65 31 122 57 128 57 5 0 10 5 10 10 0 6 3 9 8 8 4 -2 48 17
97 42 50 24 93 43 98 42 4 -1 7 3 7 9 0 5 4 7 10 4 6 -3 10 -1 10 4 0 6 3 10
8 9 4 -2 48 17 97 42 50 24 92 45 95 45 3 0 64 29 135 64 72 36 133 64 138 63
4 -1 7 3 7 10 0 6 3 9 6 6 3 -3 47 15 97 40 51 25 95 45 100 44 4 -1 7 3 7 10
0 6 3 9 6 5 3 -3 52 18 107 46 56 28 104 52 107 52 3 1 62 29 131 63 69 34
131 62 138 62 6 0 11 5 11 12 0 6 3 9 6 5 3 -3 48 16 100 43 52 27 94 47 94
45 0 -2 57 26 128 61 70 35 133 64 140 64 6 0 12 5 12 10 0 6 6 10 14 10 7 0
51 19 97 42 46 23 86 43 89 43 3 1 17 7 33 15 l27 13 0 2588 c0 2582 0 2587
-20 2582 -11 -3 -20 -9 -20 -14 0 -5 -3 -8 -7 -7 -5 1 -44 -15 -88 -36 -44
-22 -82 -39 -85 -38 -3 0 -13 -7 -24 -16 -10 -9 -20 -16 -22 -14 -3 2 -42 -15
-88 -37 -46 -23 -88 -41 -95 -41 -6 0 -11 -4 -11 -10 0 -5 -6 -10 -13 -10 -8
0 -64 -25 -125 -55 -61 -31 -114 -56 -117 -55 -3 0 -45 -20 -93 -45 -49 -25
-94 -45 -100 -45 -7 0 -12 -4 -12 -10 0 -5 -7 -10 -15 -10 -8 0 -57 -22 -109
-49 -52 -27 -97 -47 -100 -43 -3 3 -6 -1 -6 -8 0 -7 -3 -11 -6 -8 -3 3 -44
-14 -92 -38 -47 -24 -92 -44 -99 -44 -7 0 -13 -5 -13 -11 0 -5 -4 -7 -10 -4
-5 3 -10 1 -10 -4 0 -6 -7 -11 -15 -11 -8 0 -53 -20 -100 -45 -47 -24 -85 -41
-85 -38 0 3 -9 -2 -20 -12 -11 -10 -20 -15 -20 -11 0 4 -39 -13 -87 -38 -167
-84 -328 -160 -335 -158 -5 1 -8 -3 -8 -9 0 -5 -4 -7 -10 -4 -5 3 -10 1 -10
-6 0 -7 -2 -10 -6 -7 -3 3 -44 -14 -92 -38 -47 -24 -92 -44 -99 -44 -7 0 -13
-5 -13 -11 0 -5 -4 -7 -10 -4 -5 3 -10 1 -10 -6 0 -7 -3 -10 -6 -6 -4 3 -44
-14 -90 -38 -46 -24 -84 -41 -84 -38 0 3 -8 -1 -17 -10 -10 -8 -21 -16 -26
-16 -4 0 -46 -18 -92 -41 -47 -22 -87 -39 -89 -38 -2 2 -14 -6 -26 -17 -12
-11 -24 -19 -26 -17 -2 1 -34 -11 -70 -28 l-65 -30 -97 46 c-190 91 -358 171
-427 203 -38 18 -86 41 -105 51 -19 10 -120 59 -225 108 -104 50 -253 120
-330 157 -172 83 -338 162 -470 225 -156 74 -299 142 -435 208 -69 32 -174 83
-235 112 -60 29 -162 77 -225 107 -63 31 -158 76 -210 100 -52 25 -103 49
-112 54 -17 9 -18 -117 -18 -2579z m563 1764 c29 -13 113 -53 187 -89 206 -99
582 -278 705 -337 61 -29 166 -79 235 -112 180 -87 965 -462 1095 -523 l110
-52 65 33 c145 74 337 164 348 164 7 0 12 5 12 12 0 6 3 9 6 5 4 -3 49 16 100
43 52 27 94 46 94 43 0 -3 8 1 18 10 9 8 19 15 22 14 3 -1 49 20 102 46 53 26
101 47 107 47 6 0 11 5 11 12 0 6 3 9 6 6 3 -4 42 12 87 35 45 23 84 42 87 42
3 1 55 25 115 55 61 30 113 53 118 52 4 -1 7 3 7 10 0 6 3 9 6 6 3 -4 53 18
110 47 58 30 108 54 112 55 4 1 54 24 112 53 58 28 108 50 113 49 4 -1 7 3 7
8 0 5 3 9 8 8 4 -2 52 20 107 47 55 27 102 49 105 50 5 1 113 52 295 141 50
24 93 44 98 44 4 0 7 -913 7 -2029 0 -1613 -3 -2031 -12 -2038 -7 -4 -20 -8
-28 -10 -8 -1 -16 -7 -18 -12 -2 -6 -9 -11 -16 -11 -7 0 -51 -19 -97 -42 -46
-23 -85 -39 -85 -37 -1 2 -11 -5 -23 -15 -12 -11 -21 -16 -21 -12 0 4 -42 -15
-92 -41 -51 -26 -93 -45 -93 -43 0 3 -15 -5 -32 -18 -18 -13 -33 -21 -33 -18
0 3 -42 -16 -94 -43 -52 -27 -97 -47 -100 -43 -3 3 -6 0 -6 -7 0 -7 -4 -9 -10
-6 -5 3 -10 1 -10 -6 0 -7 -3 -10 -6 -7 -3 4 -48 -15 -99 -42 -52 -26 -97 -45
-100 -42 -3 3 -5 0 -5 -7 0 -7 -4 -9 -10 -6 -5 3 -10 1 -10 -6 0 -7 -3 -10 -6
-7 -3 4 -50 -16 -105 -43 -54 -28 -100 -49 -103 -47 -2 2 -14 -6 -26 -17 -12
-11 -24 -19 -26 -17 -3 2 -48 -18 -102 -45 -53 -26 -100 -46 -104 -45 -5 1 -8
-3 -8 -10 0 -6 -2 -9 -6 -6 -3 3 -46 -15 -97 -40 -51 -25 -94 -46 -97 -47 -3
0 -57 -26 -121 -58 -64 -31 -121 -57 -127 -57 -7 0 -12 -5 -12 -11 0 -5 -4 -7
-10 -4 -5 3 -10 1 -10 -6 0 -7 -3 -10 -6 -7 -3 4 -51 -17 -107 -45 -56 -28
-104 -52 -107 -52 -3 0 -48 -22 -102 -48 -53 -26 -101 -47 -108 -47 -14 0 -43
13 -420 195 -157 76 -321 154 -365 175 -44 21 -147 70 -230 110 -82 40 -195
94 -250 120 -55 26 -158 76 -230 110 -196 94 -369 177 -480 230 -55 26 -171
82 -257 123 l-158 76 0 2030 c0 1117 3 2031 6 2031 3 0 29 -11 57 -24z"/>
<path d="M2235 3690 c-57 -15 -83 -29 -121 -68 -69 -70 -74 -97 -71 -400 3
-277 5 -297 33 -341 52 -78 135 -122 224 -116 86 6 122 22 176 83 58 64 64
103 61 396 -3 271 -5 291 -33 335 -58 90 -171 136 -269 111z"/>
<path d="M4180 3681 c-61 -22 -123 -89 -144 -155 -15 -45 -16 -91 -13 -312 4
-274 3 -269 31 -326 50 -104 210 -155 320 -103 55 27 111 87 130 141 22 66 23
541 0 608 -19 54 -79 119 -131 142 -52 22 -138 25 -193 5z"/>
<path d="M3019 2335 c-3 -2 -14 -6 -25 -8 -95 -19 -184 -132 -184 -236 0 -59
30 -129 74 -175 69 -71 102 -77 413 -76 l261 1 52 27 c43 22 113 90 116 112 0
3 6 25 13 49 24 83 0 170 -64 234 -70 70 -78 71 -381 74 -149 2 -273 1 -275
-2z"/>
</g>
</svg>
