<svg xmlns="http://www.w3.org/2000/svg" width="512" height="510" viewBox="0 0 720 718" version="1.1"><path d="M 129 1.036 C 63.549 6.365, 11.141 55.884, 1.505 121.500 L 0.037 131.500 0.037 359 L 0.037 586.500 1.505 596.500 C 9.327 649.767, 44.593 692.368, 95.500 710.044 C 115.352 716.937, 127.522 717.945, 191.250 717.976 L 240 718 240.146 664.750 C 240.226 635.462, 240.564 512.494, 240.896 391.486 L 241.500 171.473 429.204 260.333 L 616.908 349.194 667.204 325.977 C 694.867 313.208, 718.068 302.539, 718.763 302.268 C 719.768 301.877, 719.972 309.032, 719.763 337.398 L 719.500 373.021 669.551 397.510 C 642.079 410.980, 618.926 422, 618.100 422 C 617.274 422, 546.812 388.925, 461.517 348.500 C 376.222 308.075, 306.072 275, 305.627 275 C 304.783 275, 305.585 591.455, 306.633 671.750 L 307.237 718 442.368 717.976 C 577.300 717.953, 593.437 717.613, 608.500 714.484 C 665.774 702.584, 712.896 651.751, 718.593 595.722 C 718.972 591.994, 719.669 588.705, 720.141 588.413 C 720.616 588.119, 720.933 485.077, 720.850 357.691 C 720.767 231.086, 720.420 129.525, 720.079 132 L 719.458 136.500 718.823 128 C 714.198 66.087, 667.031 15.096, 602.500 2.244 L 594.500 0.651 366.500 0.456 C 241.100 0.350, 134.225 0.610, 129 1.036 M 0.492 359 C 0.492 485.775, 0.608 537.637, 0.750 474.250 C 0.892 410.862, 0.892 307.137, 0.750 243.750 C 0.608 180.362, 0.492 232.225, 0.492 359 M 482 543.368 C 470.478 546.736, 462.933 553.549, 458.870 564.254 L 456.500 570.500 456.500 606.500 L 456.500 642.500 459.125 648 C 472.264 675.524, 510.268 673.517, 523.048 644.623 L 525.072 640.048 524.786 604.274 L 524.500 568.500 521.501 562.581 C 513.286 546.367, 497.689 538.781, 482 543.368" stroke="none" fill="#ffffff" fill-rule="evenodd"/></svg>